<svg xmlns="http://www.w3.org/2000/svg" viewBox="0 0 96 96" role="img" aria-labelledby="title desc">
  <title id="title">Deep Wave Research mark</title>
  <desc id="desc">A modular wave made from signal dots and contour lines.</desc>
  <defs>
    <linearGradient id="g" x1="15" x2="80" y1="80" y2="10" gradientUnits="userSpaceOnUse">
      <stop stop-color="#0F2547"/>
      <stop offset="1" stop-color="#0B7C86"/>
    </linearGradient>
  </defs>
  <rect width="96" height="96" rx="24" fill="#F7F3EA"/>
  <path d="M16 55c8 0 8-14 16-14s8 14 16 14 8-14 16-14 8 14 16 14" fill="none" stroke="url(#g)" stroke-width="6" stroke-linecap="round"/>
  <path d="M16 69c8 0 8-14 16-14s8 14 16 14 8-14 16-14 8 14 16 14" fill="none" stroke="#E25B3F" stroke-width="3" stroke-linecap="round" opacity=".9"/>
  <g fill="#0F2547">
    <circle cx="22" cy="28" r="3"/><circle cx="36" cy="23" r="3"/><circle cx="50" cy="28" r="3"/><circle cx="64" cy="23" r="3"/><circle cx="78" cy="28" r="3"/>
  </g>
</svg>
