<svg width="900" height="900" viewBox="0 0 900 900" fill="none" xmlns="http://www.w3.org/2000/svg">
  <rect width="900" height="900" fill="#050605"/>
  <g stroke="#24FF39" stroke-width="2" opacity=".85">
    <path d="M-30 170C105 75 185 95 284 194C385 296 473 297 580 216C669 149 751 129 932 229"/>
    <path d="M-28 205C112 109 197 129 294 223C392 318 485 319 596 244C687 182 769 166 935 259"/>
    <path d="M-22 240C119 143 209 163 304 252C399 340 500 341 612 272C705 216 785 205 936 291"/>
    <path d="M-18 277C127 181 221 199 316 282C410 364 513 365 629 304C722 255 803 244 936 323"/>
    <path d="M-13 316C135 219 232 237 329 315C426 394 528 392 646 339C741 295 819 287 937 357"/>
    <path d="M-10 356C140 260 246 273 342 348C440 423 545 421 664 376C762 340 836 334 938 395"/>
    <path d="M-4 399C150 299 262 312 359 385C457 459 560 453 682 416C781 386 853 380 942 435"/>
    <path d="M2 445C160 340 279 354 377 426C476 499 579 488 701 460C801 437 867 430 941 481"/>
    <path d="M11 493C171 383 294 400 398 471C501 541 599 529 722 509C819 492 880 483 943 532"/>
    <path d="M18 547C181 432 314 450 423 523C531 596 624 577 749 562C838 551 895 539 946 591"/>
    <path d="M22 607C198 482 341 506 458 580C569 652 660 631 783 621C860 616 903 602 948 651"/>
    <path d="M31 671C213 540 371 569 499 641C615 707 710 695 825 688C884 685 916 672 947 718"/>
    <path d="M40 744C232 606 416 645 549 708C674 768 753 767 858 756C908 750 929 742 947 789"/>
  </g>
  <g stroke="#FF4438" stroke-width="3" opacity=".45">
    <circle cx="606" cy="324" r="88"/>
    <circle cx="606" cy="324" r="132"/>
    <circle cx="606" cy="324" r="176"/>
  </g>
</svg>
