<svg xmlns="http://www.w3.org/2000/svg" viewBox="0 0 900 1200" role="img" aria-label="Original graphic study: distressed archival science poster">
  <defs>
    <filter id="paperNoise"><feTurbulence type="fractalNoise" baseFrequency="0.022" numOctaves="4" seed="12"/><feColorMatrix type="saturate" values="0"/><feComponentTransfer><feFuncA type="table" tableValues="0 0.14"/></feComponentTransfer></filter>
    <pattern id="scratch" width="140" height="140" patternUnits="userSpaceOnUse"><path d="M10 90 C40 70, 80 110, 130 42" stroke="#111" stroke-width="4" fill="none" opacity="0.12"/><circle cx="80" cy="30" r="3" fill="#111" opacity="0.16"/></pattern>
  </defs>
  <rect width="900" height="1200" fill="#F2E6CA"/>
  <rect width="900" height="1200" filter="url(#paperNoise)"/>
  <rect x="55" y="55" width="790" height="1090" rx="24" fill="#F7E8C9" opacity="0.75" stroke="#D7C6A2"/>
  <g transform="translate(85 280) rotate(-12)">
    <path d="M0 210 L280 75 L420 150 L125 315 Z" fill="#B45636" opacity="0.86"/>
    <path d="M70 360 L360 220 L512 300 L220 452 Z" fill="#D27A3F" opacity="0.86"/>
    <circle cx="520" cy="380" r="60" fill="none" stroke="#B45636" stroke-width="32"/>
  </g>
  <g transform="translate(320 120) rotate(-13)" style="font-family: Manrope, Inter, Helvetica, Arial, sans-serif;" fill="#24171E">
    <text x="0" y="0" font-size="82" font-weight="800">A is for</text>
    <text x="0" y="82" font-size="82" font-weight="800">Archive</text>
    <text x="0" y="145" font-size="34" font-weight="800">The first thing you should</text>
    <text x="0" y="185" font-size="34" font-weight="800">know about signal.</text>
    <text x="0" y="255" font-size="25" font-family="Georgia, serif">Discover the pulse of applied</text>
    <text x="0" y="292" font-size="25" font-family="Georgia, serif">research, field systems, and deep</text>
    <text x="0" y="329" font-size="25" font-family="Georgia, serif">ocean intelligence. All reports</text>
    <text x="0" y="366" font-size="25" font-family="Georgia, serif">are accessioned and verified.</text>
  </g>
  <g transform="translate(125 815)" style="font-family: Manrope, Inter, Helvetica, Arial, sans-serif;">
    <rect x="0" y="0" width="650" height="210" fill="#F5EBD4" opacity="0.72"/>
    <g opacity="0.35">
      <rect x="25" y="55" width="120" height="90" fill="#829083"/><rect x="170" y="35" width="95" height="120" fill="#bfa36d"/>
      <rect x="300" y="65" width="180" height="70" fill="#879a96"/><circle cx="555" cy="105" r="55" fill="#c17954"/>
    </g>
    <text x="25" y="188" font-size="16" letter-spacing="2" fill="#7B7162">ARCHIVAL POSTER STUDY · GRAIN + STAMP + OFF-AXIS HEADLINE</text>
  </g>
  <rect width="900" height="1200" fill="url(#scratch)"/>
  <g fill="#111" opacity="0.75">
    <circle cx="130" cy="925" r="8"/><circle cx="146" cy="940" r="4"/><circle cx="690" cy="620" r="8"/><circle cx="705" cy="598" r="4"/>
    <path d="M545 760 l60 28 l-40 38 l-86 -12 z"/>
    <path d="M590 845 l100 30 l-15 46 l-132 -20 z"/>
  </g>
</svg>
