<svg xmlns="http://www.w3.org/2000/svg" viewBox="0 0 1200 760" role="img" aria-label="Original graphic study: dark instrument UI">
  <rect width="1200" height="760" fill="#0F1004"/>
  <defs>
    <pattern id="grid" width="40" height="40" patternUnits="userSpaceOnUse"><path d="M40 0H0V40" fill="none" stroke="#81CBBE" stroke-width="1" opacity="0.12"/></pattern>
    <filter id="cyanGlow"><feDropShadow dx="0" dy="0" stdDeviation="6" flood-color="#81CBBE" flood-opacity="0.75"/></filter>
  </defs>
  <rect x="54" y="54" width="1092" height="652" fill="url(#grid)" stroke="#81CBBE" stroke-width="2" opacity="0.9"/>
  <g transform="translate(280 365)" fill="none" stroke="#81CBBE" filter="url(#cyanGlow)">
    <circle r="220" opacity="0.32"/><circle r="160" opacity="0.48"/><circle r="95" opacity="0.65"/><circle r="30" fill="#81CBBE" opacity="0.6"/>
    <line x1="0" y1="0" x2="155" y2="-155" stroke-width="3"/><path d="M-220 0H220 M0 -220V220" opacity="0.35"/>
    <path d="M-170 90 Q-90 -70 0 40 T170 -95" stroke="#F2CD88" stroke-width="4" opacity="0.9"/>
  </g>
  <g style="font-family: Manrope, Inter, Helvetica, Arial, sans-serif;" fill="#E8D7AE">
    <text x="78" y="108" font-size="18" letter-spacing="3">DWR / SIGNAL OBSERVATORY</text>
    <text x="78" y="132" font-size="12" letter-spacing="2" opacity="0.65">NODE 04 · ACTIVE READINGS · OCEANIC MODEL</text>
    <g transform="translate(610 118)">
      <rect width="452" height="135" fill="none" stroke="#E8D7AE" opacity="0.35"/>
      <text x="20" y="38" font-size="16" letter-spacing="2">STATUS</text><text x="205" y="38" font-size="16" letter-spacing="2" fill="#81CBBE">ACTIVE</text>
      <line x1="20" y1="58" x2="425" y2="58" stroke="#E8D7AE" opacity="0.28"/>
      <text x="20" y="92" font-size="28" letter-spacing="1">SIGNAL LOCK 82.4%</text>
      <text x="20" y="116" font-size="12" letter-spacing="1.5" opacity="0.65">ACOUSTIC TRACE · DEPTH MODEL · CURRENT VECTOR</text>
    </g>
    <g transform="translate(610 310)" stroke="#E8D7AE" stroke-width="2" fill="none" opacity="0.75">
      <polyline points="0,115 35,95 70,118 105,52 140,80 175,22 210,88 245,100 280,66 315,103 350,38 385,90 420,74" stroke="#DD5F4A" stroke-width="5"/>
      <line x1="0" y1="130" x2="425" y2="130"/><line x1="0" y1="0" x2="0" y2="130"/>
      <text x="0" y="170" style="font-family: Manrope, Inter, Helvetica, Arial, sans-serif;" font-size="15" fill="#E8D7AE" stroke="none" letter-spacing="2">WAVEFORM PANEL</text>
    </g>
    <g transform="translate(610 555)">
      <rect x="0" y="0" width="452" height="78" fill="#E8D7AE" opacity="0.08" stroke="#E8D7AE"/>
      <text x="20" y="32" font-size="16" letter-spacing="2">USE FOR: DARK LAB SECTIONS, HOVER STATES, TECHNICAL DETAIL PAGES</text>
      <text x="20" y="58" font-size="13" letter-spacing="1.4" opacity="0.7">KEEP IT SPARSE. LET THE INSTRUMENTATION FEEL VALUABLE.</text>
    </g>
  </g>
</svg>
