<svg xmlns="http://www.w3.org/2000/svg" viewBox="0 0 1200 760" role="img" aria-label="Original graphic study: corporate modernist research lobby">
  <rect width="1200" height="760" fill="#111"/>
  <rect x="34" y="34" width="1132" height="692" fill="#E9E2D1"/>
  <rect x="34" y="34" width="1132" height="692" fill="none" stroke="#D94E38" stroke-width="8" opacity="0.8"/>
  <g opacity="0.75" stroke="#C0BCA8" stroke-width="2">
    <line x1="120" y1="126" x2="1090" y2="126"/><line x1="120" y1="192" x2="1090" y2="192"/><line x1="120" y1="258" x2="1090" y2="258"/>
    <line x1="170" y1="80" x2="170" y2="335"/><line x1="330" y1="80" x2="330" y2="335"/><line x1="490" y1="80" x2="490" y2="335"/><line x1="650" y1="80" x2="650" y2="335"/><line x1="810" y1="80" x2="810" y2="335"/><line x1="970" y1="80" x2="970" y2="335"/>
  </g>
  <g>
    <rect x="210" y="270" width="135" height="380" fill="#1E1B23"/><path d="M212 270 l64 380 M340 270 l-64 380" stroke="#807481" opacity="0.45"/>
    <rect x="920" y="250" width="135" height="400" fill="#1E1B23"/><path d="M922 250 l64 400 M1050 250 l-64 400" stroke="#807481" opacity="0.45"/>
  </g>
  <g fill="#8A4E30">
    <rect x="365" y="220" width="440" height="92"/><rect x="770" y="315" width="82" height="210"/><rect x="840" y="315" width="30" height="210"/>
    <rect x="685" y="165" width="265" height="85"/>
  </g>
  <g stroke="#D5B083" stroke-width="2" opacity="0.75">
    <line x1="390" y1="220" x2="390" y2="650"/><line x1="430" y1="220" x2="430" y2="650"/><line x1="470" y1="220" x2="470" y2="650"/><line x1="510" y1="220" x2="510" y2="650"/><line x1="550" y1="220" x2="550" y2="650"/><line x1="590" y1="220" x2="590" y2="650"/><line x1="630" y1="220" x2="630" y2="650"/><line x1="670" y1="220" x2="670" y2="650"/>
  </g>
  <g>
    <polygon points="510,590 675,350 735,350 590,590" fill="#C6B8A2"/>
    <g stroke="#7C5D4D" stroke-width="5"><line x1="525" y1="570" x2="604" y2="570"/><line x1="545" y1="540" x2="623" y2="540"/><line x1="565" y1="510" x2="642" y2="510"/><line x1="585" y1="480" x2="661" y2="480"/><line x1="605" y1="450" x2="680" y2="450"/><line x1="625" y1="420" x2="699" y2="420"/></g>
    <path d="M500 585 L675 330" stroke="#8A4E30" stroke-width="8"/><path d="M740 330 L590 585" stroke="#8A4E30" stroke-width="8"/>
  </g>
  <g fill="#F5F2E7" stroke="#D5D0C3">
    <rect x="135" y="85" width="125" height="42"/><rect x="295" y="85" width="125" height="42"/><rect x="455" y="85" width="125" height="42"/><rect x="615" y="85" width="125" height="42"/><rect x="775" y="85" width="125" height="42"/>
    <rect x="160" y="157" width="125" height="42"/><rect x="320" y="157" width="125" height="42"/><rect x="480" y="157" width="125" height="42"/><rect x="640" y="157" width="125" height="42"/><rect x="800" y="157" width="125" height="42"/>
  </g>
  <text x="80" y="690" style="font-family: Manrope, Inter, Helvetica, Arial, sans-serif;" font-size="18" letter-spacing="2" fill="#24171E">CORPORATE MODERNIST LOBBY STUDY · WOOD VENEER + MARBLE COLUMNS + RESEARCH CAMPUS SCALE</text>
</svg>
